{"title":"Luv... Phir Kabhi (2014) Web Rip - XviD - [1CD] - Eng Subs - IcT","uid":11826571,"size":727019988,"categoryP":"video","categoryS":"other","magnet":"?xt=urn:btih:2c55642652b33a268599cdcf402d45cd23e9f199&amp;dn=Luv...+Phir+Kabhi+%282014%29+Web+Rip+-+XviD+-+%5B1CD%5D+-+Eng+Subs+-+IcT&amp;tr=udp%3A%2F%2Ftracker.openbittorrent.com%3A80&amp;tr=udp%3A%2F%2Fopen.demonii.com%3A1337&amp;tr=udp%3A%2F%2Ftracker.coppersurfer.tk%3A6969&amp;tr=udp%3A%2F%2Fexodus.desync.com%3A6969","seeders":5,"leechers":1,"uploader":"SS132203","files":4,"time":1429520506,"description":"Luv... Phir Kabhi (2014) Web Rip - XviD - [1CD] - Eng Subs - IcTv LotterY -={SPARROW}=-\n &lt;a href=&quot;\nhttp://imgsparrow.co/image/Lz&quot; rel=&quot;nofollow&quot; target=&quot;_NEW&quot;&gt;\nhttp://imgsparrow.co/image/Lz&lt;/a&gt;\n &lt;a href=&quot;\nhttp://imgsparrow.co/image/9b&quot; rel=&quot;nofollow&quot; target=&quot;_NEW&quot;&gt;\nhttp://imgsparrow.co/image/9b&lt;/a&gt;\n\nMovie Info\nBanner :Kala Niketan Entertaiment\nYear : 2014\nCast : Saurabh Roy.Arijita Roy\nVideo: XviD\nAudio : MP3\nGenre : Drama\nResolution : 640 x 272\nRuntime : 1hr 59min xx\nSource : Team m2tv\n\nFormat                                   : AVI\nFormat/Info                              : Audio Video Interleave\nFile size                                : 693 MiB\nDuration                                 : 1h 59mn\nOverall bit rate                         : 812 Kbps\n\nVideo\nID                                       : 0\nFormat                                   : MPEG-4 Visual\nFormat profile                           : Advanced Simple@L5\nFormat settings, BVOP                    : 2\nFormat settings, QPel                    : No\nFormat settings, GMC                     : No warppoints\nFormat settings, Matrix                  : Default (H.263)\nCodec ID                                 : XVID\nCodec ID/Hint                            : XviD\nDuration                                 : 1h 59mn\nBit rate                                 : 678 Kbps\nWidth                                    : 640 pixels\nHeight                                   : 272 pixels\nDisplay aspect ratio                     : 2.35:1\nFrame rate                               : 23.976 fps\nColor space                              : YUV\nChroma subsampling                       : 4:2:0\nBit depth                                : 8 bits\nScan type                                : Progressive\nCompression mode                         : Lossy\nBits/(Pixel*Frame)                       : 0.162\nStream size                              : 579 MiB (84%)\nWriting library                          : XviD 1.2.1 (UTC 2008-12-04)\n\nAudio\nID                                       : 1\nFormat                                   : MPEG Audio\nFormat version                           : Version 1\nFormat profile                           : Layer 3\nMode                                     : Joint stereo\nMode extension                           : MS Stereo\nCodec ID                                 : 55\nCodec ID/Hint                            : MP3\nDuration                                 : 1h 59mn\nBit rate mode                            : Constant\nBit rate                                 : 128 Kbps\nChannel(s)                               : 2 channels\nSampling rate                            : 48.0 KHz\nCompression mode                         : Lossy\nStream size                              : 109 MiB (16%)\n &lt;a href=&quot;\nhttp://imgsparrow.co/image/9h&quot; rel=&quot;nofollow&quot; target=&quot;_NEW&quot;&gt;\nhttp://imgsparrow.co/image/9h&lt;/a&gt;\n &lt;a href=&quot;\nhttp://imgsparrow.co/image/L7&quot; rel=&quot;nofollow&quot; target=&quot;_NEW&quot;&gt;\nhttp://imgsparrow.co/image/L7&lt;/a&gt; &lt;a href=&quot;\nhttp://imgsparrow.co/image/Lk&quot; rel=&quot;nofollow&quot; target=&quot;_NEW&quot;&gt;\nhttp://imgsparrow.co/image/Lk&lt;/a&gt; &lt;a href=&quot;\nhttp://imgsparrow.co/image/Ln&quot; rel=&quot;nofollow&quot; target=&quot;_NEW&quot;&gt;\nhttp://imgsparrow.co/image/Ln&lt;/a&gt; &lt;a href=&quot;\nhttp://imgsparrow.co/image/Ly&quot; rel=&quot;nofollow&quot; target=&quot;_NEW&quot;&gt;\nhttp://imgsparrow.co/image/Ly&lt;/a&gt; &lt;a href=&quot;\nhttp://imgsparrow.co/image/L5&quot; rel=&quot;nofollow&quot; target=&quot;_NEW&quot;&gt;\nhttp://imgsparrow.co/image/L5&lt;/a&gt; &lt;a href=&quot;\nhttp://imgsparrow.co/image/LA&quot; rel=&quot;nofollow&quot; target=&quot;_NEW&quot;&gt;\nhttp://imgsparrow.co/image/LA&lt;/a&gt;\n\nAll Credit Goes To Intellect Clever &amp; IcTv\n &lt;a href=&quot;\nhttp://imgsparrow.org/images/2015/02/22/SPARROW.gif&quot; rel=&quot;nofollow&quot; target=&quot;_NEW&quot;&gt;\nhttp://imgsparrow.org/images/2015/02/22/SPARROW.gif&lt;/a&gt;","torrent":{"xt":"urn:btih:2c55642652b33a268599cdcf402d45cd23e9f199","amp;dn":"Luv...+Phir+Kabhi+%282014%29+Web+Rip+-+XviD+-+%5B1CD%5D+-+Eng+Subs+-+IcT","amp;tr":["udp%3A%2F%2Ftracker.openbittorrent.com%3A80","udp%3A%2F%2Fopen.demonii.com%3A1337","udp%3A%2F%2Ftracker.coppersurfer.tk%3A6969","udp%3A%2F%2Fexodus.desync.com%3A6969"],"infoHash":"2c55642652b33a268599cdcf402d45cd23e9f199","infoHashBuffer":{"type":"Buffer","data":[44,85,100,38,82,179,58,38,133,153,205,207,64,45,69,205,35,233,241,153]},"announce":[],"urlList":[]}}